<svg width="32" height="32" viewBox="0 0 32 32" fill="none" xmlns="http://www.w3.org/2000/svg" style="shape-rendering: crispEdges">
  <!-- Основание автомата -->
  <rect x="6" y="24" width="20" height="6" fill="#C00000" stroke="#000000" stroke-width="1"/>
  <rect x="7" y="25" width="18" height="4" fill="#FF0000"/>
  
  <!-- Основной корпус -->
  <rect x="8" y="8" width="16" height="16" fill="#C00000" stroke="#000000" stroke-width="1"/>
  <rect x="9" y="9" width="14" height="14" fill="#FF0000"/>
  
  <!-- Экран -->
  <rect x="10" y="10" width="12" height="8" fill="#0080FF" stroke="#000000" stroke-width="1"/>
  <rect x="11" y="11" width="10" height="6" fill="#00B0FF"/>
  
  <!-- Игровые элементы на экране -->
  <rect x="12" y="13" width="2" height="2" fill="#00FF00"/>
  <rect x="15" y="13" width="2" height="2" fill="#00FF00"/>
  <rect x="18" y="13" width="2" height="2" fill="#00FF00"/>
  <rect x="13" y="15" width="6" height="1" fill="#0080FF"/>
  
  <!-- Панель управления -->
  <rect x="10" y="19" width="12" height="4" fill="#800000" stroke="#000000" stroke-width="1"/>
  <rect x="11" y="20" width="10" height="2" fill="#A00000"/>
  
  <!-- Джойстик -->
  <rect x="12" y="21" width="2" height="2" fill="#404040" stroke="#000000" stroke-width="0.5"/>
  <rect x="12.5" y="20.5" width="1" height="1" fill="#606060"/>
  
  <!-- Кнопки -->
  <circle cx="16" cy="22" r="1" fill="#FFFF00" stroke="#000000" stroke-width="0.5"/>
  <circle cx="18" cy="22" r="1" fill="#00FF00" stroke="#000000" stroke-width="0.5"/>
  <circle cx="20" cy="22" r="1" fill="#0080FF" stroke="#000000" stroke-width="0.5"/>
  
  <!-- Верхняя часть автомата -->
  <rect x="9" y="6" width="14" height="3" fill="#800000" stroke="#000000" stroke-width="1"/>
  <rect x="10" y="7" width="12" height="1" fill="#A00000"/>
  
  <!-- Тени и блики -->
  <rect x="24" y="8" width="1" height="16" fill="#800000"/>
  <rect x="8" y="24" width="1" height="6" fill="#800000"/>
  <line x1="9" y1="9" x2="22" y2="9" stroke="#FF8080" stroke-width="0.5"/>
</svg>
