<?xml version="1.0" standalone="no"?>
<!DOCTYPE svg PUBLIC "-//W3C//DTD SVG 20010904//EN"
 "http://www.w3.org/TR/2001/REC-SVG-20010904/DTD/svg10.dtd">
<svg version="1.0" xmlns="http://www.w3.org/2000/svg"
 width="731.000000pt" height="1280.000000pt" viewBox="0 0 731.000000 1280.000000"
 preserveAspectRatio="xMidYMid meet">
<metadata>
Created by potrace 1.15, written by Peter Selinger 2001-2017
</metadata>
<g transform="translate(0.000000,1280.000000) scale(0.100000,-0.100000)"
fill="#000000" stroke="none">
<path d="M0 7620 l0 -5180 305 0 305 0 0 305 0 305 305 0 305 0 0 305 0 305
305 0 305 0 0 305 0 305 608 -2 607 -3 0 -605 0 -605 305 -5 305 -5 0 -607 0
-608 303 -2 303 -3 -1 -608 0 -607 305 0 305 0 0 -305 0 -305 610 0 610 0 0
305 0 305 305 0 305 0 0 610 0 610 -305 0 -305 0 0 610 0 610 -305 0 -305 0 0
610 0 610 -305 0 -305 0 2 608 3 607 1218 3 1217 2 0 303 0 302 -305 -3 -305
-3 0 311 0 310 -305 0 -305 0 0 300 0 300 -302 2 -303 3 -3 302 -2 303 -303 2
-302 3 -3 302 -2 303 -303 2 -302 3 0 300 0 300 -305 5 -305 5 0 300 0 300
-303 5 -303 5 1 303 1 302 -306 0 -305 0 0 305 0 305 -305 0 -305 0 0 305 0
305 -305 0 -305 0 0 305 0 305 -305 0 -305 0 0 305 0 305 -305 0 -305 0 0
-5180z"/>
</g>
</svg>
